# xmcd
#
# Track frame offsets:
# 150
# 20085
# 40795
# 60552
# 77965
# 100537
# 119985
# 141205
# 163262
# 182727
# 200295
# 220185
# 239020
# 257610
# 274810
# 290652
# 308417
# 324697
#
# Disc length: 4556 seconds
#
#
# Revision: 1
# Processed by: cddbd v1.5.2PL0 Copyright (c) Steve Scherf et al.
# Submitted via: FreeRIP 2.95 
#
DISCID=1211ca12
DTITLE=Mariah Carey - Mariah Carey # 1's
DYEAR=1900
DGENRE=
TTITLE0=Sweetheart
TTITLE1=When You Believe (Mariah Carey and Whitney Houston)
TTITLE2=Whenever You Call
TTITLE3=My All
TTITLE4=Honey
TTITLE5=Always Be My Baby
TTITLE6=One Sweet Day (Mariah Carey and Boys II men)
TTITLE7=Fantasy (featuring O.D.B)
TTITLE8=Hero
TTITLE9=Dreamlover
TTITLE10=I'll be there (featuring Trey Lorenz)
TTITLE11=Emotions
TTITLE12=Someday
TTITLE13=Love Takes Time
TTITLE14=Vision Of Love
TTITLE15=I Still Believe
TTITLE16=Without You
TTITLE17=Do You Know Where You're Going To (Theme from Mahogany)
EXTD=
EXTT0=
EXTT1=
EXTT2=
EXTT3=
EXTT4=
EXTT5=
EXTT6=
EXTT7=
EXTT8=
EXTT9=
EXTT10=
EXTT11=
EXTT12=
EXTT13=
EXTT14=
EXTT15=
EXTT16=
EXTT17=
PLAYORDER=
